/* XPM */
static char *janghwan_je_t_1_1_1685890953[] = {
/* columns rows colors chars-per-pixel */
"40 40 229 2 ",
"   c #141607",
".  c #0E1718",
"X  c #091916",
"o  c #1C1616",
"O  c #131C15",
"+  c #1C1817",
"@  c #141519",
"#  c #1B171A",
"$  c #16191A",
"%  c #1D1A19",
"&  c #161514",
"*  c #031809",
"=  c #321A0E",
"-  c #221515",
";  c #221B14",
":  c #231719",
">  c #211D1C",
",  c #281614",
"<  c #331D1F",
"1  c #1E271D",
"2  c #24211F",
"3  c #2C221C",
"4  c #232B1D",
"5  c #342C1B",
"6  c #2F341E",
"7  c #33361E",
"8  c #1E1521",
"9  c #221E20",
"0  c #271B26",
"q  c #1C2725",
"w  c #1C3A2F",
"e  c #1D393C",
"r  c #262221",
"t  c #2A2524",
"y  c #2C2926",
"u  c #2B242A",
"i  c #2E2B29",
"p  c #252928",
"a  c #322D2C",
"s  c #3B2E29",
"d  c #382824",
"f  c #2B342C",
"g  c #283B2A",
"h  c #35332E",
"j  c #3B362B",
"k  c #313B2C",
"l  c #3B3829",
"z  c #382B3C",
"x  c #2B3533",
"c  c #2C3C34",
"v  c #243A3C",
"b  c #2D3B3B",
"n  c #2A3739",
"m  c #353232",
"M  c #393534",
"N  c #353933",
"B  c #3C3B34",
"V  c #353439",
"C  c #3B3739",
"Z  c #333B39",
"A  c #3E3A3A",
"S  c #272C32",
"D  c #5C180F",
"F  c #4C1719",
"G  c #51171C",
"H  c #67191C",
"J  c #7C1E1F",
"K  c #70190B",
"L  c #462115",
"P  c #56311A",
"I  c #70211D",
"U  c #752315",
"Y  c #682E1A",
"T  c #7E0E27",
"R  c #791B27",
"E  c #621332",
"W  c #442B2F",
"Q  c #552B2A",
"!  c #44342D",
"~  c #473727",
"^  c #57392D",
"/  c #432934",
"(  c #502C30",
")  c #413D3C",
"_  c #473A34",
"`  c #543C37",
"'  c #742C24",
"]  c #78342F",
"[  c #673534",
"{  c #61272E",
"}  c #2E421F",
"|  c #2C492C",
" . c #344421",
".. c #33452B",
"X. c #334A2C",
"o. c #3D4629",
"O. c #32522B",
"+. c #2C4333",
"@. c #2C4B35",
"#. c #2D433B",
"$. c #2C4C3A",
"%. c #254534",
"&. c #354533",
"*. c #3A4334",
"=. c #334B33",
"-. c #3A4A37",
";. c #3C443C",
":. c #344C3B",
">. c #334439",
",. c #2F5339",
"<. c #34513B",
"1. c #355236",
"2. c #5F4917",
"3. c #68491C",
"4. c #58482A",
"5. c #424335",
"6. c #44423E",
"7. c #444A3F",
"8. c #484A3D",
"9. c #524435",
"0. c #554739",
"q. c #415C3D",
"w. c #565638",
"e. c #484127",
"r. c #644928",
"t. c #704B2E",
"y. c #634838",
"u. c #6A5439",
"i. c #7A5F32",
"p. c #70602F",
"a. c #6C623E",
"s. c #67743E",
"d. c #2B3946",
"f. c #363C49",
"g. c #5D1940",
"h. c #483D44",
"j. c #5F3742",
"k. c #1D4346",
"l. c #2B4544",
"z. c #344B41",
"x. c #384645",
"c. c #355142",
"v. c #385144",
"b. c #454442",
"n. c #494444",
"m. c #444A42",
"M. c #454349",
"N. c #4B4449",
"B. c #494846",
"V. c #574E46",
"C. c #565344",
"Z. c #554A57",
"A. c #445147",
"S. c #6B5A41",
"D. c #665646",
"F. c #775A4B",
"G. c #675853",
"H. c #644A4B",
"J. c #6E6043",
"K. c #74684A",
"L. c #9A100E",
"P. c #8F0D19",
"I. c #960518",
"U. c #8A1E12",
"Y. c #99131A",
"T. c #A2090E",
"R. c #AA180C",
"E. c #A90C17",
"W. c #A50C1B",
"Q. c #A81719",
"!. c #B7101A",
"~. c #B20A17",
"^. c #B8201D",
"/. c #900725",
"(. c #81192B",
"). c #981328",
"_. c #AB0F25",
"`. c #A61825",
"'. c #B51C28",
"]. c #BA1822",
"[. c #AA1F32",
"{. c #B40B22",
"}. c #882829",
"|. c #823539",
" X c #94302E",
".X c #A72723",
"XX c #B72524",
"oX c #BC252B",
"OX c #B52B29",
"+X c #AA332F",
"@X c #B73428",
"#X c #A12331",
"$X c #AF323A",
"%X c #BE3336",
"&X c #B83B33",
"*X c #CE1A19",
"=X c #C71B17",
"-X c #C3211F",
";X c #C41D25",
":X c #C72321",
">X c #C72926",
",X c #D12727",
"<X c #CA372D",
"1X c #C63927",
"2X c #D8372D",
"3X c #C23B3B",
"4X c #C53638",
"5X c #D32E35",
"6X c #E02A26",
"7X c #894F38",
"8X c #935236",
"9X c #876C3B",
"0X c #8B6A30",
"qX c #C9473A",
"wX c #D3423E",
"eX c #D14933",
"rX c #D45238",
"tX c #BB3B48",
"yX c #8B4744",
"uX c #806547",
"iX c #CA4A43",
"pX c #D94A49",
"aX c #CA5A44",
"sX c #DD5744",
"dX c #CD5650",
"fX c #E14F45",
"gX c #FC514C",
"hX c #D96854",
"jX c #E46B4C",
/* pixels */
"+ + + + + + + + + + + - + + + + ; 8 O $ + o 0   % % + + + + + + > + + + + + + + ",
"+ + + + + + + + + + + + + + + + + % - O & - % % + $ + + + + + + + + + + + + + + ",
"+ + + + + + + + + + + + + + + + @ + + ; ; & + 8 + + + + + + + + + + + + + + + + ",
"+ + + + + + + + + + + + + + + + $ + . D ' . + # + + + + + + + + + + + + + + + + ",
"+ + + + + + + + + + + + + + + + % & @ Q.wXq @ : + + + + + + + + + + + + + + + + ",
"+ + + + + + + + + + + + + + + + ; . F *XgX( . , + + + + + + + + + + + + + + + + ",
"+ + + + + + + + + + + + + + + + - O .X=XgX8X* , + + + + + + + + + + + + + + + + ",
"+ + + + + + + + + + + + + + + + # 3 1X:XfXaX  : + + + + + + + + + + + + + + + + ",
"+ + + + + + + + % % % o + + + + > G 3X1XpXtXL . + + + + + + + $ + + + + + + + + ",
"+ + + + + + + + % + % o + + + + & (.3XrXiXI.J $ + + + + + + + + + + + + + + + + ",
"+ + + + + + + + + + + + + + + o = `.pXsX4XI._.< o + % + + + + + + + + + + + + + ",
"+ + + : % + % + : + + % % + + + K oX4XfX4XI.'.G & % + o + > > + % + % + + + > + ",
"> + + + % > + % + > + % > + % % .X4XOX<X%XI.XXH % + + : + > + > % % % + + + > + ",
"> > > > % > > % > > > > > > > > &XoX'.@XdXE.^.H % + > > : > > > > % > > > > > > ",
"> > > > > > > > > > > > > > > 0 &XoXE.qXhX~.,X' $ 1 > > > > > > > > > > > > > > ",
"> 9 > > 2 > > 2 + > r > > > 9 t @XW.'.qXiX;X*X|.% % 9 > > > > > > 2 > > 2 > 9 > ",
"r 2 > 2 r > r 9 > t 3 > 3 % > ; `.L.4X5X<X:X4XyXa 2 > r 9 r r 2 2 2 > 2 2 > 2 > ",
"> r r r r 2 r 9 y > > 9 % 2 > j U `.#XQ.>X5X>X] B > 9 y 0 2 > > r 2 r r r r 2 r ",
"t r r r r r r r t : u u r a _ V.{ _.).Y.E.$X+XU M y r 2 t y t t r r r 0 r r r r ",
"t t t t r t t t r t i p r 3 0.5.[ {.[._.`.[ 7X' j s 2 r t t t r t t t t t t t t ",
"t t t t t u t t t t u p y d _ l Q !.>X!.#XN 0.] s d 1 i i > s r u t t y y t t t ",
"y i t i y y y y y y y p 3 0.` 5.~ R.,X-X}.>.9.] ! V.a 2 i y y i y u y y y y y y ",
"i i i a y a y a y s a 4 5 y.` i ( U.<X6X}.A 9.r.` G.m.4 i a 2 y i i i i y i i i ",
"a a i a a a a a p a a g w.y.y.a E U @X6X}.a k y.~ 3 5.;.i s a f a i i i a a a a ",
"a a a a a a a a m 6 %.q.J./ z m (.K &XwXtXl t.r.H L G.w.%.c 5 m a a a a a a a a ",
"a a a a a h h a f k -.o.C.j.{ f.R T..XjXsX( w g.P.G 0.w.>.v.5 m a a m m a a a a ",
"m m h m M h h m } A.l.e.9XK.~ d Y R.R.hXaXA v R (.{ D.0.k <.c V m h m m V h m m ",
"M M M M M m M j X.:.w J.F.f.b s /.-X=XeX@X0 h.3.` H.uX9.g $.x.f M M M m M M M M ",
"M M M C M M M M | $.%.y.! ..J.Z.|.OX,X1XXXW Z.p.s.0._ z #.,.c. .M M M M M M M M ",
"M M C C M M B j l.$.O.r.Q s 3.9XK.~ D.D.F.H.l.D.0X4.S d.N O.@.*.C C B C C B C M ",
"B _ A C A B B B X.1.l.a P M u Q p.4.8X7Xi.r.4 9.8Xt.>.b k O.@.N C A B A A C A A ",
"A A _ f.) A B ! X.O.e C h x B e P 0.4.q f.1 s 4.u.3.l g &.x.<. .A A _ A A A A A ",
"A ;.) A ) A ) ) X.@.=.#.v n V V B _ z V V m _ ~ ^ ! N $.c.:.&.B ) ) A ) ) _ A A ",
"h.A ) ) ) A ) ) ..&.=.#.#.c x x B B M N c m j 5 h k >.<.<.&.*.*.) 6.) ) ) ) h.;.",
"b.) b.h.) b.h.6.;.>.&.:.=.=.%.%.n b n n v v b m b :.c.<.....5.) ) b.b.) ) b.h.) ",
") b.6.6.b.6.6.) b.A *.&.=.<.<.<.c | | | +.@.:.:.c.v.v.:.*.5.6.h.n.) b.b.6.b.6.b.",
"b.b.b.b.b.6.b.b.N.h.) *.&.&.=.<.:.:.:.1.<.v.z.:.=.-.x.x.b.n.n.h.b.6.b.b.b.6.b.;.",
"b.b.b.b.b.b.b.b.h.n.n.7.6.-.*.-.*...X.X.=...| X.o.5.b.b.h.n.b.b.b.b.b.b.b.b.b.b.",
"b.b.b.b.b.b.B.b.7.b.B.B.m.b.b.;.n.;.-.*.6.b.;.7.7.b.B.M.b.b.n.M.b.b.b.b.b.b.b.b.",
"n.B.B.b.m.B.b.B.7.b.M.M.N.n.B.n.N.b.m.n.N.N.6.7.N.M.b.b.7.7.b.B.n.B.B.b.B.b.B.B."
};
