/* XPM */
static char *_fecf69c3e15453ae9a6bf1cd78e6c42HGN4I93pGgVNwF4s[] = {
/* columns rows colors chars-per-pixel */
"40 40 162 2 ",
"   c #2E331C",
".  c #31321D",
"X  c #363A1E",
"o  c #393F1D",
"O  c #2B2622",
"+  c #2D2A23",
"@  c #312D24",
"#  c #342E28",
"$  c #343324",
"%  c #393626",
"&  c #373B23",
"*  c #3A3C25",
"=  c #36322A",
"-  c #3B352C",
";  c #3D3B2B",
":  c #3D3730",
">  c #3F3A32",
",  c #413924",
"<  c #433728",
"1  c #413D2D",
"2  c #433D33",
"3  c #493F36",
"4  c #453E39",
"5  c #4A3B3D",
"6  c #3B431D",
"7  c #3D4224",
"8  c #3F422B",
"9  c #424425",
"0  c #424A23",
"q  c #43432C",
"w  c #45492D",
"e  c #48492F",
"r  c #514529",
"t  c #454134",
"y  c #4A4335",
"u  c #474A31",
"i  c #4C4A35",
"p  c #464139",
"a  c #4E463D",
"s  c #4C443E",
"d  c #4D443E",
"f  c #4D453E",
"g  c #4D453F",
"h  c #4E453E",
"j  c #4D473E",
"k  c #4C463F",
"l  c #4E463E",
"z  c #4F463E",
"x  c #4E473E",
"c  c #4F463F",
"v  c #4D453D",
"b  c #4C453C",
"n  c #4F4839",
"m  c #4E493D",
"M  c #524C36",
"N  c #51463D",
"B  c #50463E",
"V  c #51463E",
"C  c #51473E",
"Z  c #50463F",
"A  c #50473F",
"S  c #51473F",
"D  c #51473D",
"F  c #504A39",
"G  c #51493B",
"H  c #514A3B",
"J  c #51483D",
"K  c #50493D",
"L  c #53483C",
"P  c #50483E",
"I  c #51483E",
"U  c #51493E",
"Y  c #50483F",
"T  c #51493F",
"R  c #52493F",
"E  c #514A3F",
"W  c #534B3E",
"Q  c #54493E",
"!  c #544B3F",
"~  c #524A3D",
"^  c #584A3E",
"/  c #4C4541",
"(  c #4E4541",
")  c #4F4541",
"_  c #4C4641",
"`  c #4E4740",
"'  c #4F4741",
"]  c #4D4641",
"[  c #4F4843",
"{  c #4E4941",
"}  c #504740",
"|  c #514740",
" . c #504741",
".. c #514741",
"X. c #504743",
"o. c #524642",
"O. c #524743",
"+. c #524644",
"@. c #514741",
"#. c #504840",
"$. c #504940",
"%. c #514940",
"&. c #514941",
"*. c #534940",
"=. c #524841",
"-. c #534841",
";. c #524941",
":. c #534941",
">. c #514A41",
",. c #534A40",
"<. c #534A41",
"1. c #514842",
"2. c #514843",
"3. c #524842",
"4. c #524942",
"5. c #534942",
"6. c #524843",
"7. c #524943",
"8. c #514A43",
"9. c #524A42",
"0. c #534A42",
"q. c #534A43",
"w. c #544A41",
"e. c #564B41",
"r. c #544942",
"t. c #574B43",
"y. c #534D41",
"u. c #544C42",
"i. c #554D42",
"p. c #544C43",
"a. c #554C43",
"s. c #524944",
"d. c #524945",
"f. c #534A44",
"g. c #534A45",
"h. c #544944",
"j. c #554A44",
"k. c #544B44",
"l. c #554B44",
"z. c #564B44",
"x. c #534C46",
"c. c #554C45",
"v. c #574C44",
"b. c #564D45",
"n. c #564C46",
"m. c #574D46",
"M. c #574E46",
"N. c #534A42",
"B. c #584C44",
"V. c #594D46",
"C. c #594F47",
"Z. c #594E45",
"A. c #554F48",
"S. c #574F4A",
"D. c #564D4A",
"F. c #594E48",
"G. c #594E4A",
"H. c #5D5247",
"J. c #5A5144",
"K. c #5E534B",
"L. c #5E5449",
"P. c #5A524B",
/* pixels */
"n y 2 d.d.1.1.d.i 2 :.| +.( ) ) { t > x b 4 a a t - t t p p 8 - 4 t p 4 t n n n ",
"P y s d.d.1.1.1.b t 1.s ( | 1.a P b & t / 2 p 2 7 q q t w ; H b y x a y y a b.i.",
"a n 4 +.) 2 b ) a - 2 v +.+.| 1.>.b & 4 p 4 4 * i A.| | i.< y y > d.1.| b G.b.D ",
"P :.2 ) y s a 1.) - +.| D z.A.k.1.p : / / ) ) q q p s s a - n n - i.H Z.b.1.1.{ ",
"a t - a ) b ) 1.y : | @.a z.| D :.y $ p k p / > 8 b 2 / a ; ; ! + $ 1 2 t s ) b ",
"2 t % d.1.1.t 2 3 - s y s v v | ) y & * ; 2 y $ p b b p 1.8   H.J.:.! M H a a i ",
"P i.% y K.t.2 n v - a v D a ) % ; t ; t t b n # t b b b p &   J.z.:.t.t.i.! x W ",
"n 1.% 2 z.3 v | n 2 M G d.d.S.% % * * 2 > 8 2 = ; b b / t X % Z.D a | D v n b b ",
"b >.$ - y N D z.n < r n a d.x.q * 8 e n b b P y p x / b 1.& 2 Z.P P P a x n a a ",
"a x $ > N n Z :.n , 9 | d.| d.; 0 w n x b n P y 4 x y x b.t t Z.H P a a ) a a a ",
"a :.4 - y 3 t i n * q G.a | d.# X w P 1.b.b b y 2 b b b :.D 2 :.n x a a b a _ n ",
"d.1.t & & % $ & % $ y | a z.:.; o i d.d.b t b a > k b 1.Z.1.% i n 1.1.d.[ d.1.1.",
"b t q e % D H H P @ & ; y p y 1 o 9 i k.x 1.m e > _ | 1.! D * 7 * - - 3 4 4 3 4 ",
"{ { ) +.2 y t.:.t.@ * n b 1.i.i.G % & 8 > 2 8 & q b b b 2 q & * i $ 2 D b ) ) { ",
"| ( v a 2 v t.Q t.; q 1.i.z.1.! Q 3 H n H D y z.d.{ 1.z.v , 7 9 0 6 1 { A.b.1.) ",
"v v 5 a 4 o.t.N | ; 8 | | a a 1.Z y D D a b 2 :.x ) / +.3 = * 9 7 6 1 | | a b ) ",
") 4 4 / 2 y v t 1.q t { { 1.x n G 2 y y y 4 1 1.x a _ [ p > $ $ %   2 ( v ( a ( ",
"| p 4 s 4 4 / i e * t 1.a x x x Z.3 y 3 4 y 2 1.a a _ x.> $ $ > - $ y ( 5 v a b ",
") / s / > p x e 7 7 p 1.{ { x x t 1 Z Z b { t { ) [ { { ) % t b.a t : y t i s 5 ",
"$ $ $ @ + > t ; * X > / s s ) { ; % v v a a 1 > > > > p 2 % 1 { { 4 @ 1 8 2 2 : ",
"q % p b i 4 y s i i ; ; 3 y - 2 p ; s a a ) ; % n 5 3 2 x % a G.A.< y G.i.1.P H ",
"A.t b { 1.1.| ) ) 1.; t y N 3 s [ 1 v ) { { > y Z.e.e.y P * z.A.S.) p P.i.Z.i.! ",
"{ > y z.1.x a x x x ; 2 y Z p y [ > v s p y - s 3 2 G - % . b.A.S.[ - s a ) :.:.",
"q t 1.z.x x x x x q $ - 2 2 ; t 2 + - 4 2 2 2 : < 1 2 2 2 2 J.S.K.| # - . ; t q ",
"i 1 a d.a x i { x t t b.x J.J.W P d.2 :.b { { / ) { _ { { t ; t p 1 2 2 X q y q ",
"a > y J.m >.a 1.x n > i.x b.b.{ b.z.2 D t b b b b ) _ _ m b = > 2 y a D 1 2 v n ",
"a > @ 2 7 u t 8 t t = x b y.A.b.A.1.< a D P a b _ k m _ _ / 2 b.Z.Z.! J.1 2 ! v ",
"n > & * 7 * 8 ; t ;   - ; >.b.>.J.1.2 ^ N P G b k _ _ m k b > W ^ H H W q 1 D a ",
"; - & i { m u b.W n 7 X ; t b :.P.b.> i.o.G a b b / b k k k ; x u W i.i.e 7 s s ",
"* y t.i { m i H i i * $ % p q H >.x 2 J.Z.P D n k b b k _ k > x m m W W w $ s t ",
"1 i D.s { >.y.p t t * * X $ & t , $ 5 @.b 3 ! x i { k t k k 2 { m m k :.w & v 2 ",
"1 t u i { { { b t b i * ; y 4 n P 5 - 3 2 2 > > > > > > > > = m u 8 t i 9 * 2 1 ",
"9 * 6 i k.b b { 1.x { ; - { x a ) 2 2 v ) a y s y : y 5 p p p $ X 6 6 6 6 7 ; 9 ",
"i * 7 1.1.n k x a a k % > x a a ) 4 > a a 1.1.b.d.- ) x i b b ; >.>.m x t p { m ",
"s y ; { { { { 1.a n ( * 1 1.s s / 2 : 2 y 1.! i.>.2 b x b b b 8 _ / [ t i [ ) a ",
"a a q a { { { ) n n i ; ; ) / p / y - t d.1.P 1.d.t x x b b b 8 k k b i a b b b ",
") k ; b k.k t 2 n D e & - 1.s y b p > a 1.P a s x ; p / y ) ) q { b b a b a a b ",
"{ b * % a b a 4 > ; ; @ > >.b b _ 4 > ) :.b.d.a ! 2 p b s a a 8 b t b P P x ) a ",
"{ P % 4 b.z.1.z.y @ = O = { p / b - - 2 2 2 2 2 1 - v a s b k 8 8 t { P x a { a ",
"a n 2 d.d.{ { d.n % 2 ; - > - > 2 - + : 2 # ; 1 ; - a / / k b > > t b { a b 1.n "
};
