/* XPM */
static char *def297d495c5463ae81331aebc454406hfaSYJ2bcOg4iF55[] = {
/* columns rows colors chars-per-pixel */
"40 40 187 2 ",
"   c #020201",
".  c #080701",
"X  c #0C0C04",
"o  c #0E0D0F",
"O  c #021B0E",
"+  c #1D1806",
"@  c #151515",
"#  c #191817",
"$  c #12100C",
"%  c #231C04",
"&  c #271B07",
"*  c #211F11",
"=  c #082817",
"-  c #17221C",
";  c #063A1E",
":  c #0A3C1D",
">  c #06351C",
",  c #143618",
"<  c #2A2303",
"1  c #2E2904",
"2  c #23210B",
"3  c #252705",
"4  c #34240B",
"5  c #342B0A",
"6  c #3C2B0B",
"7  c #372B06",
"8  c #3D3305",
"9  c #262418",
"0  c #352B11",
"q  c #273E12",
"w  c #3E3913",
"e  c #1B2922",
"r  c #073C20",
"t  c #2C2B27",
"y  c #3B362B",
"u  c #383328",
"i  c #333434",
"p  c #3D3C38",
"a  c #293027",
"s  c #4C1F01",
"d  c #7C0000",
"f  c #432708",
"g  c #433B03",
"h  c #493E05",
"j  c #473709",
"k  c #402E13",
"l  c #4C3311",
"z  c #443F1E",
"x  c #563A13",
"c  c #573B14",
"v  c #064324",
"b  c #094D28",
"n  c #094626",
"m  c #0A552D",
"M  c #0A5A2F",
"N  c #0B5D31",
"B  c #254132",
"V  c #0B6334",
"C  c #0A6836",
"Z  c #0D6D3A",
"A  c #0D743D",
"S  c #1C653E",
"D  c #4C4203",
"F  c #4E460B",
"G  c #504604",
"H  c #55410C",
"J  c #584709",
"K  c #5D5203",
"L  c #4B4519",
"P  c #5D4114",
"I  c #56461A",
"U  c #59511C",
"Y  c #614F09",
"T  c #625602",
"R  c #655904",
"E  c #6C5F04",
"W  c #655A0D",
"Q  c #6D4A19",
"!  c #654616",
"~  c #724E1A",
"^  c #77521B",
"/  c #7A531B",
"(  c #675E1C",
")  c #746603",
"_  c #7B6C04",
"`  c #776A08",
"'  c #7F7004",
"]  c #48442B",
"[  c #45433B",
"{  c #494736",
"}  c #504D37",
"|  c #605B33",
" . c #746B2B",
".. c #6F6836",
"X. c #375B48",
"o. c #0E7B41",
"O. c #2B6647",
"+. c #444444",
"@. c #4A4A47",
"#. c #5B5B5B",
"$. c #545454",
"%. c #605F5A",
"&. c #61605D",
"*. c #6D6A4E",
"=. c #6B6C6B",
"-. c #666564",
";. c #7E7D7E",
":. c #767576",
">. c #9B0000",
",. c #83591D",
"<. c #895E1E",
"1. c #81571C",
"2. c #826F03",
"3. c #847203",
"4. c #8B7906",
"5. c #907F04",
"6. c #8E6120",
"7. c #946521",
"8. c #9A6922",
"9. c #807E6D",
"0. c #807D7F",
"q. c #0F8144",
"w. c #108547",
"e. c #118E4C",
"r. c #11944E",
"t. c #129C53",
"y. c #12A256",
"u. c #13A558",
"i. c #14AC5B",
"p. c #15B25E",
"a. c #15B460",
"s. c #938205",
"d. c #998606",
"f. c #9C8905",
"g. c #A18D05",
"h. c #A79206",
"j. c #AA9506",
"k. c #AE9803",
"l. c #B49E05",
"z. c #B7A105",
"x. c #BDA506",
"c. c #B9A208",
"v. c #C3AA07",
"b. c #CCB307",
"n. c #CEB408",
"m. c #D0B608",
"M. c #D6BB08",
"N. c #DABE08",
"B. c #DCC108",
"V. c #89877B",
"C. c #7E7E80",
"Z. c #838383",
"A. c #86878B",
"S. c #8E8E90",
"D. c #939394",
"F. c #979799",
"G. c #9B9B9C",
"H. c #989896",
"J. c #9CA29F",
"K. c #9E9FA1",
"L. c #9FA0A3",
"P. c #A2A2A3",
"I. c #ABACAC",
"U. c #B3B3B4",
"Y. c #BABABA",
"T. c #B7B7B9",
"R. c #BEBFC1",
"E. c #CDCDCD",
"W. c #C3C3C4",
"Q. c #D1D0CF",
"!. c #CDCDD0",
"~. c #D3D3D3",
"^. c #D7D7D8",
"/. c #DCDCDC",
"(. c #D9D7D8",
"). c #DFDFE0",
"_. c #E3E3E3",
"`. c #E7E7E8",
"'. c #EDEDED",
"]. c #F4F4F4",
"[. c #F6F6F6",
"{. c gray97",
"}. c #F3F3F3",
"|. c #F8F8F8",
" X c #F9F9F9",
".X c #FAFAFA",
"XX c #FAFAFA",
/* pixels */
"'.}.[.'.[.}.'.|.'.{.{.'.{.'.'..X'.{.{.'.^.@ @.}.'.{.{.'.{.'.'..X'.}.[.'. X}.'..X",
"}.}.}.}.[.}.}.}.'.}.}.}.].}.}.}.'.}.}.}.^.@ +.'.}.}.}.}.}.}.}.{.}.}.}./._.'.}.{.",
"|.}.'.[.'.[.[.'..X}.'..X'.}.{.'.{.}.'..XE.@ i Q.{.}.'. X'.}.{.'.[.}.E.*.[ ).|.`.",
"'.}.[.'.|.}.'.|.'.].{.'..X}.'..X'.]..X'./.9 3 =.'.}.{.'..X}.'.{.'.}.=.3.L ~.}.|.",
"[.}.'.[.'.}.[.~.E.|.}.{.'.}.[.'.{.}.}.}.G.w 3.&.{.}.'.{.'.}.{.'.|.E..._ *._.{.'.",
"[.}.}.[.}.}.|.D.@.S.!.{.}.}.}.}.}.}.]._.y E s.&.{.}.}.}.}.}.{.'.|.=.3.L W.[.{.'.",
"'.}.[.'.[.}.}.E.+.  $.Q..X}.'. X'.}.{.^.] x.x. .I.].{.'..X'.'..XT...k.L !.{.'..X",
"|.}.'.|.'.[.|.'.!.+.. Y.'.}.[.'.{.}.'.`.] x.B.3.:.].'..X'.{..XY.i ' 5.V.).].{.'.",
"'.}.[.'.[.}.'.[.}.E.p @.Q.}.}.{.'.[.{.^.] x.B.3.=.}.[.}.[.}.}.D.D z.F T..X}.'.|.",
"}.}.}.}.}.}.}.].}.}.$.R *.E.).{.`./.^.$.2 x.N.s.9 H.).(././.I. .v._ 9 Y.{.}.}.}.",
"|.}.'.|.'.[.[.'.|.'.=.1 s.L $.R.C.t u + % x.M.n.K # y y y 9 ( v.N.K A.}.'.}.{.'.",
"'.[.[.'.|.}.'.|.'.]._.{ l.k.8 L 2 7 ,./ 7 x.M.N.) l 6.<.^ 7 x.b.h. .T.}.{.}.'..X",
"[.}.}.[.'.].[.'.|.}.`.[ ' n.n.n.5.% l 1.7 v.B.B.) x 8.8.,.8 n.5.. #.^.|.'.}.[.'.",
"}.}.'.}.}.].}.}.[.'.'.;.0 v.N.m.N.5.& ! P ` ' ' g x 8.8.1.8 n.4.< 1 P.|.}.}.}.}.",
"'.}.[.'.|.}.'.|.'.].|./.u ) m.M.M.M.G ~ 7.x l l l ^ 8.8.,.< R g E R K.}.|.}.'.|.",
"|.}.`.D.E.'.[.'..X].`.V.o 3 b.m.M.M.G Q 8.8.8.7.8.7.7.7.6.P c 4 E R K..X'.}.[.'.",
"'.}.'.@.X.@.V.`._.`.).[ c ! h ) b.b.D Q 7.6.^ 6 6 6 6 6 5 6 6 Y l.W P.}.[.}.'.|.",
"}.}.}.!.G.0 ` } } p i I <.7.c % 8 8 & ! l 7 K f.s.s.s.s.s.s.s.j.3.9._.}.}.}.}.[.",
".X}.'..X~.i D l.l.T % 7 j ^ ,.,.1.Q ! h g.f.g._ 3 q q 3 % s f % * H.}.XX'.}.[.'.",
"`.}.{.'. XR.| c.N.m.v.v.l.g 4 8.<.P h j.f.1 , , C u.y.n X >.d   -.'.[.'.|.}.'..X",
" X}.}.[.'.[.I.j s.x.N.N.n.) 4 ,.H d.j.4.3 n y.i.i.p.p.u.b , . # K.].'.[.'.].[.'.",
"}.}.}.}.}.[.!.@.  D x.N.c.< k J d.j.1 r N u.p.p.p.p.p.p.u.N # H.}.].}.].'.].].}.",
"'.}.[.'.[.}.!.$.& & D v.x.< x d.j.1 v t.p.p.i.p.p.p.p.a.t.e G. X'.[.[.'.XX}.'..X",
".X}.'. X'.[.U.& / ~ % g G . 8 j.1 v t.a.p.p.p.p.i.p.i.i.S G.].'..X'.'.XX'.].|.`.",
"'.}.}.}.}.[.I.k 8.7.~ P ! x h 3.r y.p.i.p.p.p.q.A a.p.y.B (.}.|.}.].].'.|.].}.|.",
"}.}.}.}.}. XI.4 <.c 5 4 <./ h 3.M a.i.M t.p.p.Z m a.p.y.B (.}.].'.].].'.].}.'.].",
" X}.}..X'.}.K.o & 3.l.8 / / h 3.m p.i.r r.p.p.A m a.p.y.B /.|.'.|.'.'.|.'.].[.'.",
"`.}.}.'. XK.@ X ` m.n.g / / D 3.M p.i.; A i.p.q.N y.p.u.B ^.'.|.'.].|.'.|.}.'..X",
"{.'.}.Y.H.I g 2.m.M.m.g / / h 3.M p.p.m = y.p.p.o.V y.q.a /.{.'.[.}.'.|.'.}.[.'.",
"].}.I.t T b.M.N.N.N.d.< / ^ G 3.m p.p.u.= A p.p.p.m v = -.`.}.}.].}.}.].}.].].}.",
"'.}.$.  K E E E E E 2 f 6./ D 3.M p.p.i.N = u.p.p.w.O @ ~.}.'..X'.].[.'.|.'.'..X",
" X}.U.F.S.S.F.#.  4 c 6.8.~ G 3.m p.p.p.i.A b A p.i.n :.).}.{.'.|.}.'.XX'.[.|.`.",
"'.}.{.}.XX{.[._.#.% 4 / <.H h.2.M p.p.p.p.i.N = ; ; - Y.XX}.'.|.'.}.].'.[.}.'.|.",
"}.}.}.}.].}.}. X0.G h < j j.k.2 V p.p.p.p.p.i.e.w.> C.`.].}.}.].}.].].}.].}.}.].",
" X}.'. X'.].{.'.D.* ) l.x.x.2.: u.p.p.p.i.p.p.i.V - U..X'.].{.'.|.'.'.XX'.{.{.'.",
"'.}.[.'.|.}.'.XX_.;.2 4.s.3 , V p.p.p.p.p.a.i.V   -._.'.|.}.'..X'.].{.'..X'.'..X",
"].}.'. X'.].].'.{.W.X.: X O C e.p.p.a.p.i.q.M O r = :._.'.].].'.{.}.'.|.'.].].'.",
"].}.}.].}.}.}.}.{.=.A i.V b ; = C V C C C m b A p.A - T.].}.[.'.].}.}.].}.].{.'.",
"'.}.].'. X}.'.{.'.-.; y.p.p.q.i 0.0.0.:.- V p.p.p.w.= U..X}.'.|.'.{.{.'.|.'.'.XX",
"XX}.'..X'.}.{.'..XT.a v u.y.O.I..X].}.|.Z.= b M m = %.).'.].|.'.|.'.'..X'.].|.'."
};
