/* XPM */
static char *da25482e72fa42e7d62aaa21ad66d4a21LjLWVGeMiwFyeRl[] = {
/* columns rows colors chars-per-pixel */
"40 40 226 2 ",
"   c #271F12",
".  c #352619",
"X  c #393131",
"o  c #433338",
"O  c #615F32",
"+  c #646B29",
"@  c #3A395D",
"#  c #5B336A",
"$  c #5B335C",
"%  c #5B434E",
"&  c #734B4C",
"*  c #7A4D4B",
"=  c #6E545A",
"-  c #635853",
";  c #755558",
":  c #72514B",
">  c #585174",
",  c #584078",
"<  c #765E64",
"1  c #7D5D61",
"2  c #6F5477",
"3  c #7C656C",
"4  c #766269",
"5  c #7B6C77",
"6  c #656162",
"7  c #B74E3B",
"8  c #AC4B2E",
"9  c #D0641E",
"0  c #CA6A2F",
"q  c #8D4E44",
"w  c #854E47",
"e  c #86514E",
"r  c #8C524C",
"t  c #92544E",
"y  c #9A5540",
"u  c #855453",
"i  c #8C5652",
"p  c #8C5D5B",
"a  c #895A57",
"s  c #92564F",
"d  c #A75943",
"f  c #B75842",
"g  c #8E635D",
"h  c #956258",
"j  c #857B55",
"k  c #807047",
"l  c #AB644A",
"z  c #B7664B",
"x  c #A36A5D",
"c  c #A96959",
"v  c #BC6D51",
"b  c #B46C57",
"n  c #BE7254",
"m  c #B9735A",
"M  c #835F60",
"N  c #876969",
"B  c #9B6B64",
"V  c #946A66",
"C  c #87737A",
"Z  c #927574",
"A  c #9B7D7B",
"S  c #987C7A",
"D  c #896F72",
"F  c #A4756A",
"G  c #B47562",
"H  c #BF7C61",
"J  c #A87B71",
"K  c #A06B61",
"L  c #C37256",
"P  c #C57B59",
"I  c #C87858",
"U  c #D87255",
"Y  c #C86956",
"T  c #C77863",
"R  c #C47C70",
"E  c #F2A63B",
"W  c #BE955B",
"Q  c #9AA35E",
"!  c #9D817F",
"~  c #A6847D",
"^  c #BA8776",
"/  c #BB917F",
"(  c #8B904F",
")  c #C7875E",
"_  c #D48A5C",
"`  c #D39457",
"'  c #CD8561",
"]  c #C78767",
"[  c #D18B63",
"{  c #D59369",
"}  c #D89769",
"|  c #CD8975",
" . c #CA977D",
".. c #DA9C70",
"X. c #D59872",
"o. c #DEA173",
"O. c #DEA67E",
"+. c #E0A06F",
"@. c #E4AA76",
"#. c #E5AE7A",
"$. c #E3A875",
"%. c #E7B17B",
"&. c #EAB57B",
"*. c #ECB87F",
"=. c #743E87",
"-. c #726D8D",
";. c #867985",
":. c #987B87",
">. c #827F9B",
",. c #6783B5",
"<. c #7492C0",
"1. c #9C898D",
"2. c #978488",
"3. c #968C98",
"4. c #97919D",
"5. c #A28681",
"6. c #AC8D84",
"7. c #A48C8B",
"8. c #AA8F8A",
"9. c #B38E84",
"0. c #AD928C",
"q. c #B2948A",
"w. c #B5988E",
"e. c #BA9687",
"r. c #A5999C",
"t. c #AA9595",
"y. c #B49B95",
"u. c #B99D96",
"i. c #B49E99",
"p. c #A18596",
"a. c #BBA29A",
"s. c #BAA399",
"d. c #9595A7",
"f. c #8F8BA1",
"g. c #A79AA2",
"h. c #AB94AD",
"j. c #A9A3A8",
"k. c #B6A8AA",
"l. c #BBB4B8",
"z. c #B9AFB0",
"x. c #C69A85",
"c. c #CAA28C",
"v. c #C4A38E",
"b. c #C3A79A",
"n. c #C4AA9C",
"m. c #CAAC9B",
"M. c #C8A896",
"N. c #D3A893",
"B. c #CEB19F",
"V. c #D3B39B",
"C. c #DCBA9C",
"Z. c #DAB498",
"A. c #D2A88E",
"S. c #ECBC83",
"D. c #E8B986",
"F. c #F1BF81",
"G. c #C2AEA8",
"H. c #CBB2A4",
"J. c #CDB5AC",
"K. c #CEB9AD",
"L. c #C6B3A7",
"P. c #D2B7A4",
"I. c #D8BCA4",
"U. c #D6BCA8",
"Y. c #C9BBB7",
"T. c #DABFB5",
"R. c #C6C198",
"E. c #EFC186",
"W. c #F2C485",
"Q. c #F5CC8C",
"!. c #EFCA97",
"~. c #F6D392",
"^. c #F8DA99",
"/. c #DDC2AA",
"(. c #D7C3A8",
"). c #D8C5B6",
"_. c #C6C0A5",
"`. c #E4C7A9",
"'. c #EDD5AB",
"]. c #E3CCB4",
"[. c #E4CEB6",
"{. c #E9D4B4",
"}. c #EEDBB5",
"|. c #E6D4BB",
" X c #ECDBBC",
".X c #E8D4B9",
"XX c #F1DDB9",
"oX c #F1DBAE",
"OX c #F6E3B2",
"+X c #F4E5BD",
"@X c #EEE0BA",
"#X c #BCB9C0",
"$X c #C7C3C9",
"%X c #D1CCCF",
"&X c #D5C8C3",
"*X c #DDD3C9",
"=X c #D9D6D9",
"-X c #C9CAD3",
";X c #ECDBC4",
":X c #EDDEC9",
">X c #EAD5C8",
",X c #E4DAD5",
"<X c #E8D8D1",
"1X c #EEE0CD",
"2X c #F4E5C2",
"3X c #F5E9C4",
"4X c #F4E8CC",
"5X c #EBE5DD",
"6X c #E8E5D9",
"7X c #F1EBDB",
"8X c #F4E9D4",
"9X c #F8F3DB",
"0X c #E0DEE0",
"qX c #E5E3E5",
"wX c #EDEAE6",
"eX c #EEEEEE",
"rX c #E9E6E5",
"tX c #F1ECE3",
"yX c #F2EEEC",
"uX c #EFF0EF",
"iX c #F4F2EE",
"pX c #EFF0F0",
"aX c #F3F3F3",
"sX c #F8F8F7",
"dX c #F8F8F9",
"fX c #F7F8F6",
/* pixels */
"fXeXfXpXaXaXpXfXeXaXaXeXfXeXaXpXaXaXpXfXeXaXaXpXfX0XG.Z N 4 r.yXaXaXaXpXaXpXaXaX",
"aXaXaXaXpXaXpXaXaXaXaXaXaXaXaXaXaXaXpXaXaXaXaXaXtX].q.D N < < l.aXaXaXpXaXaXaXaX",
"eXfXeXaXaXpXdXeXfXpXaXfXeXfXeXaXaXeXdXeXfXpXyXaX>XI.:.V e w * 4 $XaXaXaXeXfXeXaX",
"sXeXsXpXpXsXeXdXeXaXaXeXdXeXdXpXaXfXeXdXeXaXfXyX XI.~ h q q w & 5 rXaXeXdXeXfXaX",
"eXdXpXaXaXpXfXrXaXyXpXdXeXdXeXaXaXeXdXeXfXeXaXaX.XI.~ p t r q w = r.rXfXeXdXeXaX",
"fXeXfXaXyX8X:X|.[.T.Y.*XwXeXdXiXaXaXeXdXeXaXaXrX XI.6.V t t w q = < %XaXaXeXaXaX",
"pXaXpXtX4X2XXXXX{.`.I.b.u.$XrXaXaXpXaXpXfXpXaXaX:XI.w.S i t r q * = #XaXaXaXpXaX",
"pXaXaX4X+X2X2X2X{.{.`.I.M.w.k.,XaXaXaXaXaXaXaXaXtX].b.5.B i u r e = k.aXaXaXaXaX",
"dXeXiX3XOX+X`.Z.c.c.P.`.I.B.w.p.%XaXpXaXeXaXaXpXaX;XP.6.V i i r w = h.aXfXeXaXaX",
"eXdXyX4XXXC.| I I m G 9.H.U.B.0.1.=XdXeXsXpXaXfXeX7XT.q.Z i a u w = Y.aXeXdXeXaX",
"fXeXfX8X`.c.T U U U U b G e.P.H.7.k.eXsXeXaXaXpXdXwX[.b.A p a u e < Y.aXfXeXfXaX",
"yXfXaXiX:XV.e.^ T I U L b x 9.P.k.1.%XpXsXpXaXaXeXaX:XH.5.g i r u < $XdXeXfXeXaX",
"aXaXaXaXaXtX*XJ.u.9.J G m c K 9.P.w.g.rXpXaXaXaXaXaX:XH.2.p i t ; 3 %XaXaXpXaXaX",
"aXpXaXpXaXaXaXwXrX%XG.8.J c c x m.H.1.=XaXaXaXpXaXpX:Xn.A p i t 1 C 0XaXaXaXaXpX",
"eXfXpXaXaXpXdXyXsXiXpX,XG.5.K h ~ U.7.z.sXpXaXfXeXfX:Xi.Z u t i < :.eXdXeXdXeXaX",
"dXeXfXpXpXfXeXdXyXaXaXpXaX*XG.B B P.i.g.rXaXaXeXsXwX|.t.N u s M 3 $XaXeXdXeXdXaX",
"eXfXeXfXaXpXfXeXfXpXaXfXeXsXrXn.K m.H.3.eXpXaXfXeX4X(.2.; e p 3 k.pXaXdXeXdXeXaX",
"fXeXfXeXaXaXeXfXpXaXaXpXfXeXfX8Xx.v.J.i.$X=X0XrX9X@Xs.; & r N g.0XaXaXpXdXeXaXaX",
"pXaXaXaXaXpXaXaXaXpXpXaXaXaXpX7X.X.X X).).z.z._. Xs.D & e N r.0XaXaXaXaXpXaXpXaX",
"aXaXeXaXaXaXaXpXaXaXaXyX<XyX7X2XOXoX'.}.@X>X).L.s.D & a A k.rXaXaXaXaXaXpXaXaXaX",
"fXeXaXpXiXaXpXdXpXsX<XR T.7X'.D.%.@.o.X. .(. X).a.A Z 8.k.wXaXsXeXaXaXpXfXeXfXpX",
"eXdXeXfXaXpXdXeXyX<XR N.6XC.' ' D.Q.W.&.} )  .{.).y.2.3.qXyXsXeXdXpXaXfXeXfXeXaX",
"dXeXdXpXaXaXyXiXc.9.J.yX`.' ' ' ..~.W.} l y y ^ .XJ.1.;.$XdXeXsXeXaXaXpXdXeXfXaX",
"eXfXpXaXaXpXaXwXe.g rX<XX.' [ P o.~.&.n z n l q x..Xk.:.f.qXaXeXfXpXaXaXeXfXeXaX",
"aXpXaXaXaXaXpXdXY.F wXXX%.[ ) n %.~.[ v n H v d c ].U.t.;.$XpXpXpXaXaXpXaXaXaXaX",
"aXaXaXaXaXaXpXaX,XF ,XOX^.W.*.%.E.S.[ n l 8 d z b A.].y.;.#XpXdXaXaXaXpXaXpXaXaX",
"eXfXeXaXaXeXdXeXeXF ).OXQ.&.&.W._ } @.} ' P v b b  .).i.;.d.dXpXaXaXaXaXeXdXeXaX",
"dXeXdXeXaXdXeXdXeX9.i.}.F.} I { o.@.%.D.E.%.+...[ ] /.i.C f.eXdXeXaXaXpXdXeXdXpX",
"eXdXeXfXaXeXdXeXdXJ.B 6X!.o.+.m l l l n o.Q.E.#.{ ] (.8.5 j.dXeXaXaXaXaXeXsXpXaX",
"dXeXfXeXpXfXeXdXpXrXF &X4XE.*.D.m l ) } +.D.@.{ H A.n.2.5 #XpXdXpXaXaXpXsXpXaXaX",
"eXaXaXaXaXaXaXpXaXaXu.0.aX1X!.~.E...o...X.{ m G x.G.1.C h.eXaXpXaXaXaXaXpXaXpXaX",
"pXaXeXaXaXpXaXaXaXsXK.V 5XiX@X'.E.] m c l h ^ m.s.A ;.l.pXaXaXpXaXpXaXaXaXaXpXaX",
"dXeXdXeXaXaXeXdXeXaX,Xh K.>X{.L.k.V.M.w.v.s.q.Z 5 6 -.d.eXfXpXfXpXpXaXpXaXpXaXaX",
"eXdXeXfXaXeXdXeXdXaX,Xb.9.b.M.z.,.Z.!.L.d.,.-.-.1.3 # , f.-XfXeXfXpXaXfXeXsXpXaX",
"dXeXdXeXaXdXeXdXeXaX<XJ.! N v.D.f.:.~ -.f.s.M.|.>XJ.2 =., > -XdXpXaXaXpXsXeXsXaX",
"eXdXeXaXaXeXdXeXaXaX&Xu.g : W E W ,.C 0 9 9 0 C.>XT.:.# # @ d.eXaXpXaXaXeXsXpXaX",
"aXpXaXaXaXaXeXaXpXfXR.j O k ` 9 y > * 8 8 z  .M.`.N.:.$ o o 6 rXaXaXaXpXaXaXaXaX",
"aXaXaXaXaXaXaXaXaX6XQ + + e.&.` z f d 7 8 L m.y.H.b.:.o   . j.aXpXaXaXpXaXpXaXpX",
"eXdXeXaXaXpXdXeXfX6X( + j ].$...{ ) L f 7 I 0.7.b.u.:.$ . - rXiXfXpXaXaXpXaXpXaX",
"dXeXdXeXeXdXeXdXuX*XR.B.(.;XN.' I Y z f Y x.0.! b.u.h.;.. t.eXdXeXaXaXeXdXeXdXaX"
};
