/* XPM */
static char *ae4533bdb483441f9d61a746f019c5433SpPBXe8cOC3heaz[] = {
/* columns rows colors chars-per-pixel */
"40 40 147 2 ",
"   c #121500",
".  c #181607",
"X  c #161901",
"o  c #1A1D02",
"O  c #171508",
"+  c #1C1D0C",
"@  c #1E1E14",
"#  c #201F0B",
"$  c #211F10",
"%  c #1E2304",
"&  c #1E210C",
"*  c #212505",
"=  c #242B02",
"-  c #22250C",
";  c #252A0C",
":  c #292D0D",
">  c #2C3206",
",  c #2C330D",
"<  c #232413",
"1  c #282715",
"2  c #262A12",
"3  c #2A2C14",
"4  c #252619",
"5  c #262A18",
"6  c #2B2C1B",
"7  c #302F1C",
"8  c #2D3213",
"9  c #2E321A",
"0  c #313515",
"q  c #343A15",
"w  c #393D16",
"e  c #32351C",
"r  c #353A1B",
"t  c #393D1C",
"y  c #2C2E21",
"u  c #2E3323",
"i  c #333522",
"p  c #3A3724",
"a  c #353A23",
"s  c #3A3D23",
"d  c #34362A",
"f  c #393729",
"g  c #363A2C",
"h  c #3B3D2A",
"j  c #373830",
"k  c #3D3F31",
"l  c #413E2B",
"z  c #394017",
"x  c #3B411D",
"c  c #374021",
"v  c #3D4223",
"b  c #3E422A",
"n  c #3C4231",
"m  c #41421F",
"M  c #434A1D",
"N  c #414525",
"B  c #434925",
"V  c #494F21",
"C  c #42452C",
"Z  c #454B2B",
"A  c #494D2C",
"S  c #4A5024",
"D  c #4C522C",
"F  c #505628",
"G  c #50552C",
"H  c #545A2E",
"J  c #434730",
"K  c #464735",
"L  c #444432",
"P  c #484734",
"I  c #474931",
"U  c #464832",
"Y  c #464932",
"T  c #4A4D30",
"R  c #484F30",
"E  c #4A4F31",
"W  c #484C33",
"Q  c #484E32",
"!  c #4A4E33",
"~  c #4C4F30",
"^  c #494D34",
"/  c #4B4F34",
"(  c #494C37",
")  c #4A4C37",
"_  c #4A4D33",
"`  c #4C4F3A",
"'  c #4D4F3A",
"]  c #4D4E3C",
"[  c #4D4C3B",
"{  c #514D3C",
"}  c #4D5033",
"|  c #4E5132",
" . c #4B5135",
".. c #4C5236",
"X. c #4E5332",
"o. c #4E5836",
"O. c #4C5039",
"+. c #4E5239",
"@. c #515534",
"#. c #505535",
"$. c #535736",
"%. c #515535",
"&. c #555A32",
"*. c #565C30",
"=. c #555934",
"-. c #555936",
";. c #575B36",
":. c #545A35",
">. c #585D35",
",. c #585F36",
"<. c #525538",
"1. c #51533D",
"2. c #50543D",
"3. c #52563D",
"4. c #52553B",
"5. c #535A3B",
"6. c #525C39",
"7. c #565C3A",
"8. c #595E3C",
"9. c #54603A",
"0. c #5D613E",
"q. c #5B613E",
"w. c #4A4E40",
"e. c #514F40",
"r. c #535740",
"t. c #565544",
"y. c #585647",
"u. c #555940",
"i. c #545847",
"p. c #555942",
"a. c #5A5D42",
"s. c #585C4D",
"d. c #5F6340",
"f. c #5F6342",
"g. c #5E6343",
"h. c #5F6354",
"j. c #626544",
"k. c #646A46",
"l. c #62664A",
"z. c #616D49",
"x. c #656B49",
"c. c #696D4C",
"v. c #677045",
"b. c #6C704F",
"n. c #687450",
"m. c #6D7150",
"M. c #727958",
/* pixels */
"A N X < ' $ 6 ( s o @.B B A e - 6 u k h b u.O.2 y d j @ j y d h.w.5 n u c c n.o.",
"A $.X 2 K e 6 ' - # / l s C s < u j y d b Q r.6 i u @ y y y y s.s.u n u c c z.9.",
"t 0.t 3 b 2 6 1.. w G t t s s - d j < i v b 5.9 i 4 @ u y 5 + n i.u u 9 u , o.9.",
"w =.f.8 C . s h * Z C m N p e < d i < e C C Y 9 i + 4 4 u 4 5 g c 5 8 2 c 2 c n ",
"F A j.0 e - L 2 1 N 0 l C t e 3 i 4 9 9 c D c s i & 4 + y 9 h O.5 5 r 9 c a v N ",
"*.D =.N - 3 C 8 r N , A / s 3 e u < a 3 r A q  .9 a u a u n a ( a c b b C W ..Q ",
"V H >.A : e s C C Z s @.A N 7 p s h b 0 r B x $.r b h ( ( C - s Z b Q ..A C / ^ ",
"M F &.m / C t C t N B =.B C r I b +. .v v x x D b v b a u.a 2 Z R b R 5.C v b C ",
"= S >.w : 8 3 C s B A B , 0 s 7 C Z 5.B z B D D v 8 a a 5.W v  .N @.A 8 r P N l ",
"> w G N 3 3 3 r s B B N l t w e 9 a 6.X.x S B v v g.a C b a Z Z 0.G N 8 3 l l } ",
"w , Z N - < 3 9 # r t l A t 3 p < 3 o.$.M D S z c X. .W s C v 7.~ l | { @.} L P ",
"w 0 C s 2 1 e s * t 0 > N N 8 w ; 9 D G z B M x c ; +.^ ^ Q Z 7.m 0 A ;.{ ) L l ",
", m C a i i i L 8.j.N * w B e 8 9 e A  ., x x x r 8 Q u.J s g.t 0 e ~ @.l l l l ",
"* l C i i 6 + i y.c.k.A t t t 8 9 v v D q M w x 8 s u...- ^  .q : 0 P l l l l l ",
"0 0 p i y 4 + 6 3 N x.c.N 0 N w a C r B x D q x 8 C h.9 2 l.e r 1 p l O $ 7 l l ",
"l - 6 p 6 5 7 h ; o B j.N m ~ r A  .q x x H , x r q.O.- +.5.q 2 l l l l l l f l ",
"l l 1 l 7 l I t 8 v z B 9.B x , x 9.> , F z z z v 9.N r @.8.: 3 i l y { l l e.y.",
"P l 7 7 r r T @.v q v G V x G q x v.S z H 9.9.D o.b r v 1./ T e $ j $ y y l e.l ",
"l l l 8 e - t =.D z o.v Z x X.v , 9.*.> v v G G 9.S 8 X.N <.r e $ l + O O e.[ 7 ",
"p e P e e : = B x D g.x S S x D x o.9.z b > z o.o.:.v  .@.f.X 0 p w.$ $ 4 y.y f ",
"1 7 l m e t 8 N r 0.q.0 0 B 0 A v D z.b o., > D B A @.N m.A N w f [ $ $ l [ # l ",
": 7 7 m : N l m o.0.o.B * B t s , x g.c v x z v r A N =.a.8 b.r l l . 7 e.l $ y.",
"p 8 8 m : q A t 0.8.N Z m C l t , x 9.z v 9.v v t A t x.B 0 a.I L 7 $ l P 1 l { ",
"l # : p r : =.v @.=., x l.B 3 t r 9  .0 v z.v S m m 8.=.8.m m l.l $ $ l l $ l l ",
"w l 3 r t @.j.B =.B # | A 8 m 7 2 c R R 6.q.* Z D S D B 7.r ; g.( - < P - 7 l 7 ",
"r B Q v t s B j.m m m A ~ 8 l e 5 c 9 x ,.x.x A ,.D D r N w t P T i 6 h 3 p e 1 ",
"l t e 8 A A 0 @.m l =.V l 0 t 7 2 r Z 0 A g.0 V D x D N 0 : p C C ( p 6 p l 1 3 ",
"e 9 6 : N B 0 l G S l l q m t w X 0 r 0 R q.F 9.8 q N q 3 3 s h p 1.e 3 h e e l ",
"u a 2 2 t  .X.: A G m A m B A r 2 b % x 9.D x.9., t q o t I ) p p 1.3 e l 1 L l ",
"b b - 2 e <.x.t 8 A | A A N >.q r r o.v @.H z S q r r s r.h h h p T 8 i l ; I l ",
"9 g a a 9 q A d.m w A S G m D A % % M.b B 9.= D q q A a.+.+ 6 i e I s 1 N t p p ",
"n a i u J r % $.j.8 w @.A B q z.z o.q.v v x M z t B =.v + + K + 7 N Z o C { 3 e ",
"c g 9 b  .r 8 v A o.Z x Z A t q g.c.C x R x q B o.v q 9 a 9 & 2 q A q   Q T 6 s ",
"9 n h a b b c r N o.A r N  .C 8 A f.z q x v 0 D 0 o.C 9 h C u 2 q C N * A ^ i h ",
"5 a n W  .b q r r C X.C r v v q c 7.q 0 8 B q v 0 0 v ^ 9 a +.- 0 m Z 8 v Y b a ",
"r a J C b b r c r q v A v r a a v 7.v 0 , v v c c ; 8 +.9 9 i.2 0 l A t r b a 9 ",
"b C J 2 ; A b q c , 9 b b a a 9 b  .Z 8 q x @.C 0 D 9 9 C b ( a r t A N 7 s a i ",
"b v A 8 9 Z v 0 8 c C v 9 9 a 9 b v A 8 c q q.D t v 3 s ( b h a t w B N 3 e a b ",
"b q Z C x C z x q A O.a 3 6 9 i s q v c s 8 A Z C 8 r ^ a 2 a 9 e 0 s v o - 3 J ",
"B c <.r : R A C Q Q b r h i 5 6 b e s A q * r r x  .<.r 2 9 2 9 s w s s X X - K "
};
